# xmcd
#
# Track frame offsets:
# 150
# 18657
# 38376
# 50852
# 68637
# 87502
# 107612
# 126535
# 143152
# 163532
# 181379
# 200577
# 219305
# 236992
# 252096
# 268763
# 290601
# 305341
# 320826
#
# Disc length: 4526 seconds
#
#
# Revision: 0
# Processed by: cddbd v1.5.2PL0 Copyright (c) Steve Scherf et al.
# Submitted via: FreeRIP 2.96 
#
DISCID=2411ac13
DTITLE=美麗傳奇 - 美麗傳奇(伴唱音樂)
DYEAR=1900
DGENRE=Christian Rock
TTITLE0=回家(MMO)
TTITLE1=愛是不保留(MMO)
TTITLE2=全因為你(MMO)
TTITLE3=美麗傳奇(MMO)
TTITLE4=有你已經足夠(MMO)
TTITLE5=全因有你(MMO)
TTITLE6=每天每刻獻上為你(MMO)
TTITLE7=愛的誓約(MMO)
TTITLE8=愛永恆(MMO)
TTITLE9=當你走到無力(MMO)
TTITLE10=普通的人(MMO)
TTITLE11=容我寧靜(MMO)
TTITLE12=讓我感恩(MMO)
TTITLE13=誰造(MMO)
TTITLE14=你的愛(MMO)
TTITLE15=只有你永恆的主(MMO)
TTITLE16=耶和華是愛(MMO)
TTITLE17=上帝聽禱告(MMO)
TTITLE18=足印(MMO)
EXTD=
EXTT0=
EXTT1=
EXTT2=
EXTT3=
EXTT4=
EXTT5=
EXTT6=
EXTT7=
EXTT8=
EXTT9=
EXTT10=
EXTT11=
EXTT12=
EXTT13=
EXTT14=
EXTT15=
EXTT16=
EXTT17=
EXTT18=
PLAYORDER=
